<svg width="62" height="56" viewBox="0 0 62 56" fill="none" xmlns="http://www.w3.org/2000/svg">
<g clip-path="url(#clip0_30_1048)">
<path fill-rule="evenodd" clip-rule="evenodd" d="M1.639 19.0701H59.94V16.19L30.7689 2.15995L1.639 16.19V19.0701ZM0.980697 50.0104H4.93052V25.3651H3.77849C3.40819 25.3651 3.12018 25.0771 3.12018 24.7068V20.4279H0.939553C0.569258 20.4279 0.28125 20.1399 0.28125 19.7696V15.8197C0.28125 15.5729 0.404682 15.326 0.651546 15.2026L30.4809 0.802197C30.4809 0.802197 30.8924 0.71991 31.0569 0.802197L60.8452 15.1614C61.092 15.2437 61.2566 15.4906 61.2566 15.7786V19.7284C61.2566 20.0987 60.9686 20.3867 60.5983 20.3867H58.4588V24.6657C58.4588 25.036 58.1708 25.324 57.8005 25.324H56.6485V49.9692H60.5983C60.9686 49.9692 61.2566 50.2572 61.2566 50.6275V54.7831C61.2566 55.1534 60.9686 55.4414 60.5983 55.4414H0.939553C0.569258 55.4414 0.28125 55.1534 0.28125 54.7831V50.6275C0.28125 50.2572 0.569258 49.9692 0.939553 49.9692L0.980697 50.0104ZM18.3846 20.4279V24.7068C18.3846 25.0771 18.0966 25.3651 17.7263 25.3651H16.5743V50.0104H25.0088V25.3651H23.8567C23.4864 25.3651 23.1984 25.0771 23.1984 24.7068V20.4279H18.4257H18.3846ZM38.4217 20.4279V24.7068C38.4217 25.0771 38.1337 25.3651 37.7634 25.3651H36.6114V50.0104H45.0459V25.3651H43.8938C43.5235 25.3651 43.2355 25.0771 43.2355 24.7068V20.4279H38.4217ZM57.1422 20.4279H44.5521V24.0074H57.1422V20.4279ZM37.1051 20.4279H24.515V24.0074H37.1051V20.4279ZM17.068 20.4279H4.43679V24.0074H17.0268V20.4279H17.068ZM6.28827 50.0104H15.2165V25.3651H6.24712V50.0104H6.28827ZM26.3254 50.0104H35.2536V25.3651H26.3254V50.0104ZM46.4036 50.0104H55.3319V25.3651H46.4036V50.0104ZM59.94 51.3681H1.639V54.1659H59.94V51.3681Z" fill="#362C22"/>
</g>
<defs>
<clipPath id="clip0_30_1048">
<rect width="60.9753" height="54.7626" fill="white" transform="translate(0.28125 0.71875)"/>
</clipPath>
</defs>
</svg>
