<svg width="25" height="24" viewBox="0 0 25 24" fill="none" xmlns="http://www.w3.org/2000/svg">
<g clip-path="url(#clip0_1_2564)">
<path d="M12.3828 24.0098C19.0102 24.0098 24.3828 18.6372 24.3828 12.0098C24.3828 5.38235 19.0102 0.00976562 12.3828 0.00976562C5.7554 0.00976562 0.382812 5.38235 0.382812 12.0098C0.382812 18.6372 5.7554 24.0098 12.3828 24.0098Z" fill="#1769FF"/>
<path d="M8.86092 6.57227C9.37836 6.57227 9.85068 6.61835 10.2779 6.70955C10.7051 6.80075 11.0699 6.95051 11.3742 7.15883C11.6785 7.36715 11.9147 7.64363 12.0827 7.98923C12.2507 8.33483 12.3342 8.76107 12.3342 9.26891C12.3342 9.81707 12.2094 10.274 11.9608 10.6398C11.7121 11.0055 11.3435 11.3051 10.8568 11.5383C11.5268 11.7313 12.027 12.0692 12.3572 12.5511C12.6875 13.0331 12.8526 13.6148 12.8526 14.2955C12.8526 14.8436 12.746 15.3188 12.5329 15.7201C12.3198 16.1214 12.0328 16.4487 11.6718 16.7022C11.3108 16.9566 10.9 17.1438 10.4382 17.2657C9.97356 17.3876 9.49452 17.4491 9.01452 17.4481H3.74316V6.57227H8.86092ZM8.5566 10.9739C8.98284 10.9739 9.33324 10.8721 9.6078 10.6695C9.88236 10.466 10.0196 10.1367 10.0187 9.67979C10.0187 9.42635 9.9726 9.21803 9.8814 9.05579C9.7902 8.89355 9.66828 8.76587 9.51564 8.67467C9.363 8.58347 9.18828 8.52011 8.99052 8.48459C8.787 8.44907 8.5806 8.43083 8.37324 8.43179H6.13548V10.9758L8.5566 10.9739ZM8.69388 15.5886C8.91948 15.5895 9.14412 15.5665 9.36396 15.5204C9.57708 15.4743 9.76524 15.3985 9.92748 15.2919C10.0897 15.1854 10.2193 15.0404 10.3163 14.858C10.4123 14.6756 10.4612 14.4414 10.4612 14.1572C10.4612 13.5995 10.3038 13.2001 9.98892 12.962C9.67404 12.723 9.2574 12.6039 8.73996 12.6039H6.13548V15.5895L8.69388 15.5886ZM15.8612 15.3601C16.1857 15.675 16.6532 15.8324 17.2628 15.8324C17.6996 15.8324 18.075 15.723 18.3899 15.5051C18.7048 15.2871 18.8977 15.0558 18.9688 14.8119H20.8724C20.5681 15.7566 20.1006 16.4315 19.4708 16.8375C18.8411 17.2436 18.0798 17.4471 17.186 17.4471C16.5668 17.4471 16.0081 17.3483 15.5108 17.1505C15.0136 16.9527 14.5921 16.6705 14.2465 16.3047C13.9009 15.939 13.634 15.5031 13.4468 14.9953C13.2596 14.4875 13.1656 13.9287 13.1656 13.3201C13.1656 12.7316 13.2616 12.1835 13.4545 11.6756C13.6475 11.1678 13.922 10.7291 14.2772 10.3585C14.6324 9.98795 15.0568 9.69611 15.5492 9.48299C16.0417 9.26987 16.588 9.16331 17.187 9.16331C17.8571 9.16331 18.4408 9.29291 18.939 9.55211C19.4363 9.81131 19.8452 10.1588 20.1649 10.5956C20.4846 11.0324 20.716 11.5297 20.858 12.0884C21.0001 12.6471 21.051 13.2308 21.0107 13.8404H15.3294C15.3592 14.5383 15.5368 15.0462 15.8612 15.3601ZM18.3064 11.2177C18.0472 10.9335 17.6536 10.7915 17.1256 10.7915C16.78 10.7915 16.4929 10.85 16.2654 10.9662C16.0369 11.0833 15.8545 11.2273 15.7172 11.4001C15.58 11.5729 15.484 11.7553 15.4283 11.9483C15.3726 12.1412 15.339 12.314 15.3294 12.4657H18.8478C18.7451 11.9185 18.5646 11.5019 18.3064 11.2177ZM14.9588 7.12427H19.3547V8.34347H14.9588V7.12427Z" fill="white"/>
</g>
<defs>
<clipPath id="clip0_1_2564">
<rect width="24" height="24" fill="white" transform="translate(0.382812 0.00976562)"/>
</clipPath>
</defs>
</svg>
