<svg width="20" height="22" viewBox="0 0 20 22" fill="none" xmlns="http://www.w3.org/2000/svg">
<path d="M19 9.00977H1M14 1.00977V5.00977M6 1.00977V5.00977M5.8 21.0098H14.2C15.8802 21.0098 16.7202 21.0098 17.362 20.6828C17.9265 20.3952 18.3854 19.9363 18.673 19.3718C19 18.73 19 17.89 19 16.2098V7.80977C19 6.12961 19 5.28953 18.673 4.6478C18.3854 4.08331 17.9265 3.62437 17.362 3.33675C16.7202 3.00977 15.8802 3.00977 14.2 3.00977H5.8C4.11984 3.00977 3.27976 3.00977 2.63803 3.33675C2.07354 3.62437 1.6146 4.08331 1.32698 4.6478C1 5.28953 1 6.12961 1 7.80977V16.2098C1 17.89 1 18.73 1.32698 19.3718C1.6146 19.9363 2.07354 20.3952 2.63803 20.6828C3.27976 21.0098 4.11984 21.0098 5.8 21.0098Z" stroke="#D6D8CA" stroke-width="2" stroke-linecap="round" stroke-linejoin="round"/>
</svg>
