<svg width="77" height="23" viewBox="0 0 77 23" fill="none" xmlns="http://www.w3.org/2000/svg">
<path d="M23.5756 0.916504H20.0508V22.795H23.5756V0.916504Z" fill="white"/>
<path d="M35.8522 15.8669C35.8522 19.2702 33.0566 19.5133 32.2058 19.5133C30.1395 19.5133 29.7749 17.5685 29.7749 16.353V7.96631H26.25V16.353C26.25 18.4193 26.8577 20.121 28.0732 21.3365C29.0456 22.3088 30.6257 22.9166 32.2058 22.9166C33.4213 22.9166 35.0014 22.5519 35.8522 21.7011V22.9166H39.3771V7.96631H35.8522V15.8669Z" fill="white"/>
<path d="M46.3039 2.61816H42.779V7.96623H40.2266V11.3695H42.779V22.795H46.3039V11.3695H48.9779V7.96623H46.3039V2.61816Z" fill="white"/>
<path d="M60.0394 18.2983C59.3101 19.0275 58.2162 19.3922 57.1223 19.3922C54.6914 19.3922 52.8682 17.569 52.8682 15.138C52.8682 12.7071 54.5698 11.0054 57.1223 11.0054C58.2162 11.0054 59.1886 11.3701 60.0394 12.0994L60.5256 12.5855L62.835 10.2762L62.2273 9.78997C60.8903 8.5745 58.9455 7.84521 57.0008 7.84521C52.6251 7.84521 49.4648 11.0054 49.4648 15.3811C49.4648 19.7568 52.7466 22.917 57.0008 22.917C58.9455 22.917 60.8903 22.1878 62.2273 20.9723L62.835 20.4861L60.4041 18.1767L60.0394 18.2983Z" fill="white"/>
<path d="M75.3563 9.1817C74.3839 8.20932 73.1684 7.60159 71.5883 7.60159C70.3729 7.60159 69.1574 7.96623 68.185 8.81706V0.916504H64.6602V22.795H68.185V14.6513C68.185 11.248 70.616 11.0049 71.3452 11.0049C73.4115 11.0049 73.4115 12.9497 73.4115 14.1651V22.795H76.9364V14.1651C76.9364 12.0988 76.5718 10.3972 75.3563 9.1817Z" fill="white"/>
<path d="M57.0017 12.707C58.4603 12.707 59.5542 13.801 59.5542 15.2595C59.5542 16.5965 58.4603 17.812 57.0017 17.812C55.6647 17.812 54.4492 16.7181 54.4492 15.2595C54.4492 13.801 55.5431 12.707 57.0017 12.707Z" fill="#EF4335"/>
<path d="M15.189 17.3255C13.852 18.6625 12.0288 19.3918 10.2056 19.3918C6.31608 19.3918 3.5205 16.3531 3.5205 12.099C3.5205 7.84486 6.31608 4.80618 10.2056 4.80618C12.1503 4.80618 13.852 5.53546 15.189 6.87248L15.6752 7.35867L17.9846 5.04928L17.4984 4.56309C15.5537 2.61834 12.8796 1.52441 10.084 1.52441C4.37133 1.52441 0.117188 6.1432 0.117188 12.2205C0.117188 18.2979 4.49288 22.7951 10.2056 22.7951C13.0012 22.7951 15.6752 21.7012 17.6199 19.6349L18.1061 19.1487L15.7967 16.7178L15.189 17.3255Z" fill="white"/>
</svg>
