<svg width="18" height="18" viewBox="0 0 18 18" fill="none" xmlns="http://www.w3.org/2000/svg">
<path d="M17.3981 12.102C17.3066 12.0184 17.1725 12.002 17.0632 12.0597C13.9348 13.719 10.0954 12.6153 8.32393 9.54691C6.55245 6.47852 7.51584 2.60224 10.5172 0.722085C10.6222 0.656489 10.6745 0.531818 10.6478 0.411097C10.6214 0.290179 10.5218 0.198898 10.3991 0.18329C8.45433 -0.0666466 6.52854 0.320014 4.82878 1.30158C2.77278 2.48804 1.30201 4.40494 0.687538 6.69823C0.0730701 8.99152 0.388405 11.3868 1.57565 13.443C2.7627 15.4992 4.67941 16.9699 6.9727 17.5844C7.73851 17.7895 8.51558 17.891 9.28772 17.891C10.8278 17.891 12.348 17.4872 13.7174 16.6965C15.4168 15.7153 16.7149 14.2406 17.4708 12.4316C17.5186 12.3174 17.4894 12.1856 17.3981 12.102Z" fill="#E0E0E0"/>
</svg>
