<svg width="18" height="18" viewBox="0 0 18 18" fill="none" xmlns="http://www.w3.org/2000/svg">
<path d="M5.66675 16.5098H12.3334M9.00008 13.1764V16.5098M4.66675 13.1764H13.3334C14.7336 13.1764 15.4336 13.1764 15.9684 12.9039C16.4388 12.6643 16.8212 12.2818 17.0609 11.8114C17.3334 11.2766 17.3334 10.5766 17.3334 9.17643V5.50977C17.3334 4.10963 17.3334 3.40957 17.0609 2.87479C16.8212 2.40438 16.4388 2.02193 15.9684 1.78225C15.4336 1.50977 14.7336 1.50977 13.3334 1.50977H4.66675C3.26661 1.50977 2.56655 1.50977 2.03177 1.78225C1.56136 2.02193 1.17891 2.40438 0.939231 2.87479C0.666748 3.40957 0.666748 4.10963 0.666748 5.50977V9.17643C0.666748 10.5766 0.666748 11.2766 0.939231 11.8114C1.17891 12.2818 1.56136 12.6643 2.03177 12.9039C2.56655 13.1764 3.26661 13.1764 4.66675 13.1764Z" stroke="white" stroke-width="1.25" stroke-linecap="round" stroke-linejoin="round"/>
</svg>
