<svg width="25" height="24" viewBox="0 0 25 24" fill="none" xmlns="http://www.w3.org/2000/svg">
<g clip-path="url(#clip0_1_2562)">
<path d="M0.382812 12.0098C0.382812 9.83376 0.918828 7.82577 1.99081 5.98577C3.06282 4.14576 4.51883 2.68977 6.35881 1.61777C8.19882 0.545758 10.2068 0.00976562 12.3828 0.00976562C14.5588 0.00976562 16.5668 0.545758 18.4068 1.61777C20.2468 2.68977 21.7028 4.14576 22.7748 5.98577C23.8468 7.82577 24.3828 9.83376 24.3828 12.0098C24.3828 14.1858 23.8468 16.1938 22.7748 18.0338C21.7028 19.8738 20.2468 21.3298 18.4068 22.4018C16.5668 23.4738 14.5588 24.0098 12.3828 24.0098C10.2068 24.0098 8.19882 23.4738 6.35881 22.4018C4.51883 21.3298 3.06282 19.8738 1.99081 18.0338C0.918828 16.1938 0.382812 14.1858 0.382812 12.0098ZM2.37481 12.0098C2.37481 14.5058 3.21481 16.7058 4.89481 18.6098C5.66281 17.1058 6.87882 15.6738 8.54281 14.3138C10.2068 12.9538 11.8308 12.0978 13.4148 11.7458C13.1748 11.1858 12.9428 10.6818 12.7188 10.2338C9.96683 11.1138 6.99083 11.5538 3.79081 11.5538C3.16681 11.5538 2.70282 11.5458 2.39881 11.5298C2.39881 11.5938 2.39483 11.6738 2.38681 11.7698C2.37882 11.8658 2.37481 11.9458 2.37481 12.0098ZM2.68681 9.53777C3.03882 9.56976 3.55883 9.58577 4.24681 9.58577C6.91883 9.58577 9.45481 9.22577 11.8548 8.50577C10.6388 6.34577 9.30282 4.54577 7.84681 3.10577C6.58283 3.74577 5.49882 4.63377 4.59481 5.76977C3.69083 6.90576 3.05483 8.16177 2.68681 9.53777ZM6.26281 19.9058C8.07083 21.3138 10.1108 22.0178 12.3828 22.0178C13.5668 22.0178 14.7428 21.7938 15.9108 21.3458C15.5908 18.6098 14.9668 15.9618 14.0388 13.4018C12.5668 13.7218 11.0828 14.5298 9.58681 15.8258C8.09082 17.1218 6.98281 18.4818 6.26281 19.9058ZM9.93481 2.33777C11.3428 3.79377 12.6468 5.60976 13.8468 7.78577C16.0228 6.87377 17.6628 5.71377 18.7668 4.30577C16.9108 2.76977 14.7828 2.00177 12.3828 2.00177C11.5668 2.00177 10.7508 2.11377 9.93481 2.33777ZM14.7108 9.48977C14.9508 10.0018 15.2228 10.6498 15.5268 11.4338C16.7108 11.3218 17.9988 11.2658 19.3908 11.2658C20.3828 11.2658 21.3668 11.2898 22.3428 11.3378C22.2148 9.16176 21.4308 7.22577 19.9908 5.52977C18.9508 7.08177 17.1908 8.40177 14.7108 9.48977ZM16.1268 13.1138C16.9428 15.4818 17.4948 17.9138 17.7828 20.4098C19.0468 19.5938 20.0788 18.5458 20.8788 17.2658C21.6788 15.9858 22.1588 14.6018 22.3188 13.1138C21.1508 13.0338 20.0868 12.9938 19.1268 12.9938C18.2468 12.9938 17.2468 13.0338 16.1268 13.1138Z" fill="black"/>
</g>
<defs>
<clipPath id="clip0_1_2562">
<rect width="24" height="24" fill="white" transform="translate(0.382812 0.00976562)"/>
</clipPath>
</defs>
</svg>
