<svg width="83" height="29" viewBox="0 0 83 29" fill="none" xmlns="http://www.w3.org/2000/svg">
<g clip-path="url(#clip0_1301_761)">
<path d="M35.319 15.2756C35.319 19.1594 32.2913 22.0213 28.5755 22.0213C24.8598 22.0213 21.832 19.1594 21.832 15.2756C21.832 11.3643 24.8598 8.52979 28.5755 8.52979C32.2913 8.52979 35.319 11.3643 35.319 15.2756ZM32.3671 15.2756C32.3671 12.8485 30.6122 11.1879 28.5755 11.1879C26.5388 11.1879 24.784 12.8485 24.784 15.2756C24.784 17.6782 26.5388 19.3632 28.5755 19.3632C30.6122 19.3632 32.3671 17.6752 32.3671 15.2756Z" fill="#EA4335"/>
<path d="M49.8698 15.2756C49.8698 19.1594 46.8421 22.0213 43.1263 22.0213C39.4106 22.0213 36.3828 19.1594 36.3828 15.2756C36.3828 11.3674 39.4106 8.52979 43.1263 8.52979C46.8421 8.52979 49.8698 11.3643 49.8698 15.2756ZM46.9178 15.2756C46.9178 12.8485 45.163 11.1879 43.1263 11.1879C41.0896 11.1879 39.3348 12.8485 39.3348 15.2756C39.3348 17.6782 41.0896 19.3632 43.1263 19.3632C45.163 19.3632 46.9178 17.6752 46.9178 15.2756Z" fill="#FBBC05"/>
<path d="M63.8088 8.93733V21.0481C63.8088 26.0299 60.8811 28.0645 57.4199 28.0645C54.1618 28.0645 52.2009 25.8778 51.4614 24.0895L54.0315 23.0158C54.4891 24.1138 55.6105 25.4094 57.4169 25.4094C59.6324 25.4094 61.0053 24.0378 61.0053 21.4556V20.4854H60.9023C60.2416 21.3036 58.9686 22.0183 57.3623 22.0183C54.0012 22.0183 50.9219 19.0803 50.9219 15.2999C50.9219 11.4921 54.0012 8.52979 57.3623 8.52979C58.9656 8.52979 60.2385 9.24451 60.9023 10.0383H61.0053V8.94037H63.8088V8.93733ZM61.2144 15.2999C61.2144 12.9246 59.6354 11.1879 57.626 11.1879C55.5893 11.1879 53.883 12.9246 53.883 15.2999C53.883 17.6509 55.5893 19.3632 57.626 19.3632C59.6354 19.3632 61.2144 17.6509 61.2144 15.2999Z" fill="#4285F4"/>
<path d="M68.4339 1.83838V21.6073H65.5547V1.83838H68.4339Z" fill="#34A853"/>
<path d="M79.6523 17.4968L81.9435 19.0297C81.204 20.1276 79.4219 22.0194 76.3426 22.0194C72.5239 22.0194 69.6719 19.0571 69.6719 15.2736C69.6719 11.262 72.5481 8.52783 76.0123 8.52783C79.5007 8.52783 81.2071 11.3137 81.7647 12.8192L82.0708 13.5856L73.0845 17.3204C73.7725 18.6739 74.8424 19.3642 76.3426 19.3642C77.8459 19.3642 78.8885 18.6222 79.6523 17.4968ZM72.5996 15.0698L78.6066 12.5668C78.2763 11.7243 77.2822 11.1373 76.1123 11.1373C74.6121 11.1373 72.5238 12.4664 72.5996 15.0698Z" fill="#EA4335"/>
<path d="M10.9342 13.5202V10.6583H20.5448C20.6388 11.1571 20.6873 11.7471 20.6873 12.3858C20.6873 14.533 20.1023 17.1881 18.2172 19.0799C16.3836 20.9959 14.0408 22.0178 10.9372 22.0178C5.1848 22.0178 0.347656 17.3159 0.347656 11.5433C0.347656 5.77081 5.1848 1.06885 10.9372 1.06885C14.1196 1.06885 16.3866 2.32189 18.0899 3.95511L16.0775 5.97458C14.856 4.82494 13.2012 3.93078 10.9342 3.93078C6.73353 3.93078 3.44815 7.328 3.44815 11.5433C3.44815 15.7587 6.73353 19.1559 10.9342 19.1559C13.6589 19.1559 15.2107 18.058 16.2048 17.0604C17.0109 16.2514 17.5413 15.0957 17.7505 13.5172L10.9342 13.5202Z" fill="#4285F4"/>
</g>
<defs>
<clipPath id="clip0_1301_761">
<rect width="82.4375" height="27.9806" fill="white" transform="translate(0.238281 0.92627)"/>
</clipPath>
</defs>
</svg>
