<svg width="285" height="57" viewBox="0 0 285 57" fill="none" xmlns="http://www.w3.org/2000/svg">
<path d="M0 0.126221V56.1248L41.3528 28.1255L0 0.126221Z" fill="#ADA772"/>
<path d="M41.353 28.1255L82.7058 56.1248V0.126221L41.353 28.1255Z" fill="#ADA772"/>
<path d="M0 56.1268H82.7056L41.3528 22.384L0 56.1268Z" fill="#A29A69"/>
<path opacity="0.25" d="M37.476 25.47L0 54.5462V56.1256L37.5478 25.5418L37.476 25.47Z" fill="#010101"/>
<path opacity="0.25" d="M45.2295 25.47L82.7054 54.6179V56.1256L45.2295 25.5418V25.47Z" fill="#010101"/>
<path opacity="0.25" d="M82.7056 0.126221H0L37.9785 34.4433C39.9169 36.1663 42.7886 36.1663 44.7271 34.4433L82.7056 0.126221Z" fill="#010101"/>
<path d="M82.7056 0.126221H0L38.1939 30.6383C40.0605 32.0741 42.6451 32.0741 44.5117 30.6383L82.7056 0.126221Z" fill="#4C4034"/>
<path d="M41.3562 7.08887L43.2947 12.9759H49.4689L44.4434 16.5655L46.3818 22.4526L41.3562 18.7911L36.4025 22.4526L38.2691 16.5655L33.3154 12.9759H39.4896L41.3562 7.08887Z" fill="#E9EFE9"/>
<path d="M206.519 35.5933H197.401L195.75 40.4752H189.001L198.335 15.4912H205.586L214.991 40.4752H208.242L206.519 35.5933ZM198.837 31.1421H205.011L201.996 22.168H201.852L198.837 31.1421Z" fill="white"/>
<path d="M220.377 32.647V40.4725H214.849V20.0833H223.966C226.694 20.0833 228.848 20.6576 230.5 21.7345C232.151 22.8114 232.94 24.319 232.94 26.1857C232.94 27.2626 232.653 28.1241 232.007 28.9138C231.361 29.7035 230.428 30.2779 229.135 30.7804C230.571 31.1394 231.648 31.7137 232.294 32.5752C232.94 33.4368 233.228 34.4419 233.228 35.6623V36.9546C233.228 37.4572 233.299 38.1033 233.515 38.7494C233.73 39.4674 234.017 39.8981 234.448 40.1853V40.4725H228.776C228.346 40.1853 228.059 39.6827 227.915 38.9648C227.771 38.2469 227.7 37.529 227.7 36.8828V35.6623C227.7 34.6572 227.412 33.9393 226.838 33.4368C226.264 32.9342 225.402 32.647 224.254 32.647H220.377ZM220.377 28.9856H224.038C225.115 28.9856 225.977 28.7702 226.551 28.3395C227.125 27.9087 227.412 27.2626 227.412 26.4728C227.412 25.6113 227.125 24.9652 226.479 24.4626C225.905 23.9601 225.043 23.6729 223.966 23.6729H220.377V28.9856Z" fill="white"/>
<path d="M244.068 20.0833L249.381 34.3701H249.453L254.837 20.0833H262.089V40.4725H256.56V35.3752L257.063 26.0421H256.991L251.248 40.4725H247.515L241.843 26.1857H241.771L242.274 35.3752V40.4725H236.746V20.0833H244.068Z" fill="white"/>
<path d="M273.29 28.9885H273.362L278.101 20.0862H284.059L276.019 33.2961V40.4754H270.562V33.0807L262.665 20.0862H268.624L273.29 28.9885Z" fill="white"/>
<path d="M105.29 40.4752H98.5415V15.4912H105.29V40.4752Z" fill="white"/>
<path d="M128.764 40.4754H123.307L114.62 27.4809H114.549V40.4754H109.021V20.0862H114.549L123.236 33.0807H123.307V20.0862H128.764V40.4754Z" fill="white"/>
<path d="M131.855 40.4725V20.0833H139.968C142.911 20.0833 145.208 20.5858 146.86 21.5191C148.511 22.4524 149.301 23.8883 149.301 25.6831C149.301 26.6882 149.014 27.5497 148.511 28.2677C148.008 29.0574 147.147 29.5599 146.07 29.9907C147.434 30.2779 148.511 30.7804 149.157 31.6419C149.803 32.4317 150.162 33.4368 150.162 34.4419C150.162 36.4521 149.372 37.9597 147.865 38.9648C146.285 39.9699 144.06 40.4725 141.188 40.4725H131.855ZM137.383 28.5548H140.111C141.332 28.5548 142.265 28.3394 142.911 27.9087C143.557 27.4779 143.844 26.9036 143.844 26.1857C143.844 25.3241 143.557 24.678 142.911 24.319C142.265 23.8883 141.332 23.7447 140.039 23.7447H137.455V28.5548H137.383ZM137.383 31.7137V36.811H141.188C142.337 36.811 143.27 36.5956 143.844 36.2367C144.419 35.8059 144.706 35.2316 144.706 34.4419C144.706 33.5803 144.419 32.8624 143.916 32.4317C143.414 32.0009 142.624 31.7855 141.475 31.7855H137.383V31.7137Z" fill="white"/>
<path d="M170.187 32.0747C170.187 34.5875 169.254 36.6695 167.387 38.3207C165.52 39.972 163.151 40.7617 160.136 40.7617C157.121 40.7617 154.68 39.972 152.813 38.3207C150.946 36.6695 150.013 34.5875 150.013 32.0747V28.4133C150.013 25.9005 150.946 23.8185 152.813 22.1673C154.68 20.516 157.121 19.7263 160.064 19.7263C163.008 19.7263 165.449 20.516 167.315 22.1673C169.182 23.8185 170.115 25.9005 170.115 28.4133V32.0747H170.187ZM164.659 28.4133C164.659 26.9774 164.228 25.7569 163.438 24.8236C162.649 23.8903 161.5 23.3878 160.064 23.3878C158.557 23.3878 157.408 23.8185 156.69 24.7518C155.9 25.6851 155.541 26.9056 155.541 28.3415V32.0747C155.541 33.5824 155.972 34.7311 156.762 35.6644C157.551 36.5977 158.7 37.1002 160.208 37.1002C161.644 37.1002 162.792 36.5977 163.582 35.6644C164.372 34.7311 164.803 33.5106 164.803 32.0747V28.4133H164.659Z" fill="white"/>
<path d="M178.089 26.9786L181.965 20.0864H188.283L181.535 30.2092L188.858 40.4756H182.181L178.16 33.4399L174.14 40.4756H167.822L174.786 30.2092L168.038 20.0864H174.355L178.089 26.9786Z" fill="white"/>
</svg>
