<svg width="137" height="94" viewBox="0 0 137 94" fill="none" xmlns="http://www.w3.org/2000/svg">
<path d="M28.0234 0.00976562V54.9262L68.619 27.4721L28.0234 0.00976562Z" fill="#ADA772"/>
<path d="M68.6191 27.4721L109.211 54.9262V0.00976562L68.6191 27.4721Z" fill="#ADA772"/>
<path d="M28.0234 54.9256H109.21L68.619 21.8599L28.0234 54.9256Z" fill="#A29A69"/>
<g style="mix-blend-mode:multiply" opacity="0.25">
<path d="M64.8096 24.8877L28.0234 53.4095V54.9262L64.8551 24.9208L64.8096 24.8877Z" fill="black"/>
</g>
<g style="mix-blend-mode:multiply" opacity="0.25">
<path d="M72.428 24.8877L109.21 53.4819V54.9262L72.3804 24.9208L72.428 24.8877Z" fill="black"/>
</g>
<g style="mix-blend-mode:multiply" opacity="0.25">
<path d="M109.21 0.00976562H28.0234L65.3 33.6714C67.185 35.3723 70.0529 35.3723 71.94 33.6714L109.21 0.00976562Z" fill="black"/>
</g>
<path d="M109.21 0.00976562H28.0234L65.5276 29.9283C67.3381 31.3705 69.9019 31.3705 71.7083 29.9283L109.21 0.00976562Z" fill="#4B3F33"/>
<path d="M68.6192 6.81079L70.4877 12.5694H76.5401L71.6444 16.1242L73.517 21.8849L68.6192 18.3197L63.7215 21.8849L65.5899 16.1242L60.6963 12.5694H66.7487L68.6192 6.81079Z" fill="white"/>
<path d="M5.23509 93.354H0.288574V74.9263H5.23509V93.354Z" fill="white"/>
<path d="M22.5745 93.3541H18.5354L12.1481 83.7662L12.0766 83.7882V93.3568H8.0127V78.3138H12.0766L18.4639 87.9016L18.5354 87.8796V78.311H22.5745V93.3541Z" fill="white"/>
<path d="M24.8276 93.3541V78.311H30.819C32.9829 78.311 34.6739 78.6575 35.8892 79.3504C37.1046 80.0433 37.7122 81.0744 37.7122 82.4437C37.7122 83.1613 37.517 83.7965 37.1238 84.3546C36.7334 84.9128 36.1285 85.3335 35.3146 85.614C36.3374 85.8147 37.0936 86.2161 37.5802 86.8183C38.0669 87.4204 38.3116 88.1161 38.3116 88.8997C38.3116 90.368 37.7397 91.4761 36.5986 92.2267C35.4548 92.9774 33.8188 93.3541 31.6851 93.3541H24.8304H24.8276ZM28.8915 84.5829H30.9042C31.8226 84.5691 32.51 84.4151 32.9664 84.1237C33.4229 83.8322 33.6483 83.4033 33.6483 82.8369C33.6483 82.1962 33.4174 81.7288 32.9527 81.4373C32.488 81.1459 31.7786 80.9974 30.819 80.9974H28.8888V84.5829H28.8915ZM28.8915 86.898V90.6705H31.6851C32.5485 90.6705 33.1946 90.5247 33.6263 90.2305C34.058 89.9391 34.2725 89.4881 34.2725 88.8832C34.2725 88.2288 34.0855 87.7339 33.7143 87.4012C33.3431 87.0685 32.741 86.9008 31.9106 86.9008H28.8915V86.898Z" fill="white"/>
<path d="M53.0572 87.1871C53.0572 89.0404 52.3753 90.5664 51.0143 91.7707C49.6505 92.9723 47.8715 93.5744 45.6746 93.5744C43.4777 93.5744 41.6684 92.9723 40.2936 91.7707C38.9188 90.5691 38.2314 89.0404 38.2314 87.1871V84.4815C38.2314 82.6366 38.9161 81.1105 40.2881 79.9035C41.6574 78.6992 43.4474 78.0942 45.6526 78.0942C47.8578 78.0942 49.623 78.6964 50.9978 79.9035C52.3726 81.1078 53.06 82.6338 53.06 84.4815V87.1871H53.0572ZM49.0181 84.4596C49.0181 83.3845 48.7239 82.5046 48.1382 81.8144C47.5498 81.127 46.7222 80.7806 45.6526 80.7806C44.583 80.7806 43.7196 81.1243 43.1422 81.8089C42.5621 82.4936 42.2733 83.379 42.2733 84.4596V87.1871C42.2733 88.276 42.5676 89.1641 43.1532 89.8543C43.7416 90.5416 44.5803 90.8881 45.6773 90.8881C46.7744 90.8881 47.5636 90.5444 48.1465 89.8543C48.7294 89.1641 49.0208 88.276 49.0208 87.1871V84.4596H49.0181Z" fill="white"/>
<path d="M58.8611 83.384L61.7372 78.311H66.4115L61.4127 85.7707L66.7937 93.3541H61.8802L58.9078 88.1766L55.9355 93.3541H51.2612L56.392 85.7707L51.3932 78.311H56.0318L58.8611 83.384Z" fill="white"/>
<path d="M79.7967 89.7713H73.0574L71.8531 93.354H66.8599L73.7613 74.9263H79.0901L86.0053 93.354H81.0148L79.7967 89.7713ZM74.16 86.4801H78.6969L76.4642 79.8865H76.3762L74.16 86.4801Z" fill="white"/>
<path d="M90.0698 87.5882V93.3541H86.0059V78.311H92.7176C94.7386 78.311 96.3416 78.7152 97.5239 79.5209C98.7062 80.3265 99.2974 81.4291 99.2974 82.8259C99.2974 83.604 99.0582 84.2722 98.5852 84.8303C98.1096 85.3885 97.4084 85.8422 96.4818 86.1941C97.5514 86.4553 98.3213 86.8925 98.7887 87.5002C99.2561 88.1106 99.4899 88.8695 99.4899 89.7796V90.731C99.4899 91.1241 99.5586 91.5723 99.6933 92.0755C99.8281 92.5787 100.065 92.9361 100.4 93.1506V93.3568H96.2288C95.9099 93.1423 95.6982 92.7656 95.5992 92.2212C95.5002 91.6768 95.4507 91.1736 95.4507 90.7117V89.8016C95.4507 89.0867 95.2307 88.5368 94.7908 88.1601C94.3509 87.7806 93.7075 87.5909 92.8606 87.5909H90.067L90.0698 87.5882ZM90.0698 84.9018H92.7424C93.5562 84.9018 94.1804 84.7423 94.6121 84.4206C95.0438 84.0989 95.2582 83.6397 95.2582 83.0403C95.2582 82.4409 95.0355 81.9322 94.5928 81.5583C94.1502 81.1844 93.5232 80.9946 92.7176 80.9946H90.0698V84.8991V84.9018Z" fill="white"/>
<path d="M107.042 78.311L110.949 88.8392H111.02L114.974 78.311H120.319V93.3541H116.255V89.6229L116.638 82.7516L116.566 82.7406L112.359 93.3513H109.626L105.466 82.8341L105.395 82.8451L105.777 89.6229V93.3541H101.713V78.311H107.033H107.042Z" fill="white"/>
<path d="M128.999 84.8826H129.071L132.546 78.311H136.946L131.012 88.0638V93.3541H126.973V87.8879L121.16 78.311H125.535L128.999 84.8826Z" fill="white"/>
</svg>
