<svg width="25" height="24" viewBox="0 0 25 24" fill="none" xmlns="http://www.w3.org/2000/svg">
<g clip-path="url(#clip0_1_2560)">
<path d="M12.3828 0.00976562C5.75534 0.00976562 0.382812 5.38229 0.382812 12.0097C0.382812 18.6372 5.75534 24.0097 12.3828 24.0097C19.0102 24.0097 24.3828 18.6372 24.3828 12.0097C24.3828 5.38229 19.0101 0.00976562 12.3828 0.00976562ZM9.18117 17.8112H6.54645V9.29916H9.18117V17.8112ZM7.85126 8.18445C6.99079 8.18445 6.29323 7.4812 6.29323 6.61384C6.29323 5.74638 6.99088 5.04318 7.85126 5.04318C8.71163 5.04318 9.40919 5.74638 9.40919 6.61384C9.40924 7.48125 8.71168 8.18445 7.85126 8.18445ZM19.0548 17.8112H16.4328V13.3431C16.4328 12.1176 15.9673 11.4335 14.9983 11.4335C13.9437 11.4335 13.3928 12.146 13.3928 13.3431V17.8112H10.8658V9.29916H13.3928V10.4456C13.3928 10.4456 14.1529 9.03952 15.9578 9.03952C17.7627 9.03952 19.0548 10.1416 19.0548 12.4215L19.0548 17.8112Z" fill="url(#paint0_linear_1_2560)"/>
</g>
<defs>
<linearGradient id="paint0_linear_1_2560" x1="3.89752" y1="3.52447" x2="20.8681" y2="20.495" gradientUnits="userSpaceOnUse">
<stop stop-color="#2489BE"/>
<stop offset="1" stop-color="#0575B3"/>
</linearGradient>
<clipPath id="clip0_1_2560">
<rect width="24" height="24" fill="white" transform="translate(0.382812 0.00976562)"/>
</clipPath>
</defs>
</svg>
