<svg width="14" height="18" viewBox="0 0 14 18" fill="none" xmlns="http://www.w3.org/2000/svg">
<path d="M7.00008 13.5934H7.00842M3.83341 17.3434H10.1667C11.1002 17.3434 11.5669 17.3434 11.9234 17.1618C12.237 17.002 12.492 16.747 12.6517 16.4334C12.8334 16.0769 12.8334 15.6102 12.8334 14.6768V3.34342C12.8334 2.41 12.8334 1.94329 12.6517 1.58677C12.492 1.27317 12.237 1.0182 11.9234 0.858416C11.5669 0.676758 11.1002 0.676758 10.1667 0.676758H3.83341C2.9 0.676758 2.43328 0.676758 2.07676 0.858416C1.76316 1.0182 1.50819 1.27317 1.34841 1.58677C1.16675 1.94329 1.16675 2.41001 1.16675 3.34342V14.6768C1.16675 15.6102 1.16675 16.0769 1.34841 16.4334C1.50819 16.747 1.76316 17.002 2.07676 17.1618C2.43328 17.3434 2.89999 17.3434 3.83341 17.3434ZM7.41675 13.5934C7.41675 13.8235 7.23016 14.0101 7.00008 14.0101C6.77 14.0101 6.58342 13.8235 6.58342 13.5934C6.58342 13.3633 6.77 13.1768 7.00008 13.1768C7.23016 13.1768 7.41675 13.3633 7.41675 13.5934Z" stroke="#5B5B5B" stroke-width="1.25" stroke-linecap="round" stroke-linejoin="round"/>
</svg>
