<svg width="80" height="13" viewBox="0 0 80 13" fill="none" xmlns="http://www.w3.org/2000/svg">
<path d="M6.52947 0.636719L8.47087 4.60777L12.8831 5.22549L9.70631 8.31409L10.5005 12.7264L6.52947 10.6085L2.64666 12.7264L3.35262 8.31409L0.175781 5.22549L4.58806 4.60777L6.52947 0.636719Z" fill="#F48023"/>
<path d="M23.1177 0.636719L25.0591 4.60777L29.4714 5.22549L26.2946 8.31409L27.0005 12.7264L23.1177 10.6085L19.1467 12.7264L19.9409 8.31409L16.6758 5.22549L21.0881 4.60777L23.1177 0.636719Z" fill="#F48023"/>
<path d="M39.6232 0.636719L41.5646 4.60777L45.9769 5.22549L42.8001 8.31409L43.5943 12.7264L39.6232 10.6085L35.6522 12.7264L36.4464 8.31409L33.2695 5.22549L37.6818 4.60777L39.6232 0.636719Z" fill="#F48023"/>
<path d="M56.1232 0.636719L58.1529 4.60777L62.5651 5.22549L59.3883 8.31409L60.0943 12.7264L56.1232 10.6085L52.2404 12.7264L52.9464 8.31409L49.7695 5.22549L54.1818 4.60777L56.1232 0.636719Z" fill="#F48023"/>
<path d="M72.7131 0.636719L74.6545 4.60777L79.0667 5.22549L75.8899 8.31409L76.5959 12.7264L72.7131 10.6085L68.742 12.7264L69.5362 8.31409L66.3594 5.22549L70.7717 4.60777L72.7131 0.636719Z" fill="white"/>
<path d="M72.7131 0.636719L74.6545 4.60777L79.0667 5.22549L75.8899 8.31409L76.5959 12.7264L72.7131 10.6085L68.742 12.7264L69.5362 8.31409L66.3594 5.22549L70.7717 4.60777L72.7131 0.636719Z" fill="white"/>
<path d="M74.6545 4.60777L72.7131 0.636719L70.7717 4.60777L66.3594 5.22549L69.5362 8.31409L68.742 12.7264L72.7131 10.6085L76.5959 12.7264L75.8899 8.31409L74.6545 4.60777Z" fill="#F48023"/>
</svg>
