<svg width="25" height="24" viewBox="0 0 25 24" fill="none" xmlns="http://www.w3.org/2000/svg">
<path d="M12.0537 19.0098C15.9197 19.0098 19.0537 15.8758 19.0537 12.0098C19.0537 8.14377 15.9197 5.00977 12.0537 5.00977C8.18772 5.00977 5.05371 8.14377 5.05371 12.0098C5.05371 15.8758 8.18772 19.0098 12.0537 19.0098Z" fill="#00BEF2"/>
<path d="M12.0537 22.9698C11.5037 22.9698 11.0537 22.5598 11.0537 22.0098V21.9298C11.0537 21.3798 11.5037 20.9298 12.0537 20.9298C12.6037 20.9298 13.0537 21.3798 13.0537 21.9298C13.0537 22.4798 12.6037 22.9698 12.0537 22.9698ZM19.1937 20.1498C18.9337 20.1498 18.6837 20.0498 18.4837 19.8598L18.3537 19.7298C17.9637 19.3398 17.9637 18.7098 18.3537 18.3198C18.7437 17.9298 19.3737 17.9298 19.7637 18.3198L19.8937 18.4498C20.2837 18.8398 20.2837 19.4698 19.8937 19.8598C19.7037 20.0498 19.4537 20.1498 19.1937 20.1498ZM4.91371 20.1498C4.65371 20.1498 4.40371 20.0498 4.20371 19.8598C3.81371 19.4698 3.81371 18.8398 4.20371 18.4498L4.33371 18.3198C4.72371 17.9298 5.35371 17.9298 5.74371 18.3198C6.13371 18.7098 6.13371 19.3398 5.74371 19.7298L5.61371 19.8598C5.42371 20.0498 5.16371 20.1498 4.91371 20.1498ZM22.0537 13.0098H21.9737C21.4237 13.0098 20.9737 12.5598 20.9737 12.0098C20.9737 11.4598 21.4237 11.0098 21.9737 11.0098C22.5237 11.0098 23.0137 11.4598 23.0137 12.0098C23.0137 12.5598 22.6037 13.0098 22.0537 13.0098ZM2.13371 13.0098H2.05371C1.50371 13.0098 1.05371 12.5598 1.05371 12.0098C1.05371 11.4598 1.50371 11.0098 2.05371 11.0098C2.60371 11.0098 3.09371 11.4598 3.09371 12.0098C3.09371 12.5598 2.68371 13.0098 2.13371 13.0098ZM19.0637 5.99977C18.8037 5.99977 18.5537 5.89977 18.3537 5.70977C17.9637 5.31977 17.9637 4.68977 18.3537 4.29977L18.4837 4.16977C18.8737 3.77977 19.5037 3.77977 19.8937 4.16977C20.2837 4.55977 20.2837 5.18977 19.8937 5.57977L19.7637 5.70977C19.5737 5.89977 19.3237 5.99977 19.0637 5.99977ZM5.04371 5.99977C4.78371 5.99977 4.53371 5.89977 4.33371 5.70977L4.20371 5.56977C3.81371 5.17977 3.81371 4.54977 4.20371 4.15977C4.59371 3.76977 5.22371 3.76977 5.61371 4.15977L5.74371 4.28977C6.13371 4.67977 6.13371 5.30977 5.74371 5.69977C5.55371 5.89977 5.29371 5.99977 5.04371 5.99977ZM12.0537 3.04977C11.5037 3.04977 11.0537 2.63977 11.0537 2.08977V2.00977C11.0537 1.45977 11.5037 1.00977 12.0537 1.00977C12.6037 1.00977 13.0537 1.45977 13.0537 2.00977C13.0537 2.55977 12.6037 3.04977 12.0537 3.04977Z" fill="#00BEF2"/>
</svg>
