<svg width="25" height="18" viewBox="0 0 25 18" fill="none" xmlns="http://www.w3.org/2000/svg">
<g clip-path="url(#clip0_1_2556)">
<path d="M16.3829 8.74557C14.1885 7.57286 12.0873 6.49472 9.93945 5.36908V12.103C12.1996 10.8743 14.5819 9.7491 16.3923 8.74557H16.3829Z" fill="white"/>
<path d="M16.3829 8.74557C14.1885 7.57286 9.93945 5.36908 9.93945 5.36908L15.6045 9.17674C15.6045 9.17674 14.5726 9.74911 16.3829 8.74557Z" fill="#E8E0E0"/>
<path d="M10.3508 17.3732C5.79268 17.2893 4.23587 17.2138 3.27896 17.0167C2.63155 16.8857 2.06895 16.5948 1.65643 16.173C1.33761 15.8537 1.08406 15.3666 0.887354 14.6908C0.718618 14.1277 0.6529 13.6593 0.559207 12.515C0.415781 9.93242 0.38159 7.821 0.559207 5.46181C0.70574 4.15899 0.776787 2.61239 1.75013 1.7101C2.20971 1.28782 2.74434 1.01606 3.34468 0.903722C4.28249 0.725661 8.27798 0.5849 12.4142 0.5849C16.5411 0.5849 20.5455 0.725661 21.4842 0.903722C22.2342 1.04448 22.9376 1.46632 23.3505 2.01027C24.2386 3.40723 24.2542 5.14432 24.3443 6.50308C24.3816 7.1505 24.3816 10.8267 24.3443 11.4741C24.204 13.6215 24.0912 14.3813 23.7724 15.169C23.5752 15.6663 23.4069 15.9288 23.1156 16.2196C22.6588 16.6672 22.0764 16.9649 21.446 17.0731C17.5016 17.3697 14.1522 17.4341 10.3508 17.3732ZM16.3911 8.74461C14.1966 7.57189 12.0954 6.48444 9.94758 5.35879V12.0931C12.2077 10.8645 14.5905 9.73882 16.4004 8.73528L16.3911 8.74461Z" fill="#CD201F"/>
</g>
<defs>
<clipPath id="clip0_1_2556">
<rect width="24" height="16.8576" fill="white" transform="translate(0.382812 0.580994)"/>
</clipPath>
</defs>
</svg>
